<svg width="13" height="13" viewBox="0 0 13 13" fill="none" xmlns="http://www.w3.org/2000/svg">
<path d="M6.5 9.28875C6.60917 9.28875 6.70062 9.25187 6.77437 9.17813C6.84771 9.10437 6.88437 9.01292 6.88437 8.90375C6.88437 8.795 6.8475 8.70375 6.77375 8.63C6.7 8.55625 6.60875 8.51917 6.5 8.51875C6.39125 8.51833 6.3 8.55521 6.22625 8.62937C6.1525 8.70354 6.11563 8.79479 6.11563 8.90312C6.11563 9.01146 6.1525 9.10292 6.22625 9.1775C6.3 9.25208 6.39125 9.28958 6.5 9.28875ZM6.1875 7.22062H6.8125V3.47062H6.1875V7.22062ZM6.50187 12.125C5.72438 12.125 4.99312 11.9775 4.30813 11.6825C3.62354 11.3871 3.02792 10.9862 2.52125 10.48C2.01458 9.97375 1.61354 9.37875 1.31813 8.695C1.02271 8.01125 0.875 7.28021 0.875 6.50187C0.875 5.72354 1.02271 4.99229 1.31813 4.30813C1.61313 3.62354 2.01333 3.02792 2.51875 2.52125C3.02417 2.01458 3.61938 1.61354 4.30438 1.31813C4.98938 1.02271 5.72062 0.875 6.49813 0.875C7.27562 0.875 8.00688 1.02271 8.69187 1.31813C9.37646 1.61313 9.97208 2.01354 10.4787 2.51938C10.9854 3.02521 11.3865 3.62042 11.6819 4.305C11.9773 4.98958 12.125 5.72062 12.125 6.49813C12.125 7.27562 11.9775 8.00688 11.6825 8.69187C11.3875 9.37687 10.9867 9.9725 10.48 10.4787C9.97333 10.985 9.37833 11.386 8.695 11.6819C8.01167 11.9777 7.28063 12.1254 6.50187 12.125ZM6.5 11.5C7.89583 11.5 9.07812 11.0156 10.0469 10.0469C11.0156 9.07812 11.5 7.89583 11.5 6.5C11.5 5.10417 11.0156 3.92187 10.0469 2.95312C9.07812 1.98437 7.89583 1.5 6.5 1.5C5.10417 1.5 3.92187 1.98437 2.95312 2.95312C1.98437 3.92187 1.5 5.10417 1.5 6.5C1.5 7.89583 1.98437 9.07812 2.95312 10.0469C3.92187 11.0156 5.10417 11.5 6.5 11.5Z" fill="#962828"/>
</svg>
