<svg width="20" height="24" viewBox="0 0 20 24" fill="none" xmlns="http://www.w3.org/2000/svg">
<path d="M17.2967 10.9333C16.9901 10.5333 16.6167 10.1867 16.2701 9.84C15.3767 9.04 14.3634 8.46667 13.5101 7.62667C11.5234 5.68 11.0834 2.46667 12.3501 0C11.0834 0.306667 9.97673 1 9.03007 1.76C5.57673 4.53333 4.21673 9.42667 5.8434 13.6267C5.89673 13.76 5.95007 13.8933 5.95007 14.0667C5.95007 14.36 5.75007 14.6267 5.4834 14.7333C5.17673 14.8667 4.85673 14.7867 4.6034 14.5733C4.52773 14.5099 4.46444 14.4331 4.41673 14.3467C2.91007 12.44 2.67007 9.70667 3.6834 7.52C1.45673 9.33333 0.2434 12.4 0.416733 15.2933C0.496733 15.96 0.576733 16.6267 0.8034 17.2933C0.990066 18.0933 1.35007 18.8933 1.75007 19.6C3.19007 21.9067 5.6834 23.56 8.3634 23.8933C11.2167 24.2533 14.2701 23.7333 16.4567 21.76C18.8967 19.5467 19.7501 16 18.4967 12.96L18.3234 12.6133C18.0434 12 17.2967 10.9333 17.2967 10.9333ZM13.0834 19.3333C12.7101 19.6533 12.0967 20 11.6167 20.1333C10.1234 20.6667 8.63007 19.92 7.75007 19.04C9.33673 18.6667 10.2834 17.4933 10.5634 16.3067C10.7901 15.24 10.3634 14.36 10.1901 13.3333C10.0301 12.3467 10.0567 11.5067 10.4167 10.5867C10.6701 11.0933 10.9367 11.6 11.2567 12C12.2834 13.3333 13.8967 13.92 14.2434 15.7333C14.2967 15.92 14.3234 16.1067 14.3234 16.3067C14.3634 17.4 13.8834 18.6 13.0834 19.3333Z" fill="#962828"/>
</svg>
