<svg width="28" height="28" viewBox="0 0 28 28" fill="none" xmlns="http://www.w3.org/2000/svg">
<g id="github">
<path id="Vector" d="M14.0002 2.33301C12.4681 2.33301 10.951 2.63478 9.53552 3.22108C8.12006 3.80738 6.83393 4.66675 5.75058 5.7501C3.56266 7.93802 2.3335 10.9055 2.3335 13.9997C2.3335 19.1563 5.68183 23.5313 10.3135 25.083C10.8968 25.1763 11.0835 24.8147 11.0835 24.4997V22.528C7.85183 23.228 7.1635 20.9647 7.1635 20.9647C6.62683 19.6113 5.8685 19.2497 5.8685 19.2497C4.80683 18.5263 5.95016 18.5497 5.95016 18.5497C7.11683 18.6313 7.73516 19.7513 7.73516 19.7513C8.75016 21.5247 10.4652 20.9997 11.1302 20.7197C11.2352 19.9613 11.5385 19.448 11.8652 19.1563C9.27516 18.8647 6.55683 17.8613 6.55683 13.4163C6.55683 12.1213 7.00016 11.083 7.7585 10.2547C7.64183 9.96301 7.2335 8.74967 7.87516 7.17467C7.87516 7.17467 8.85516 6.85967 11.0835 8.36467C12.0052 8.10801 13.0085 7.97967 14.0002 7.97967C14.9918 7.97967 15.9952 8.10801 16.9168 8.36467C19.1452 6.85967 20.1252 7.17467 20.1252 7.17467C20.7668 8.74967 20.3585 9.96301 20.2418 10.2547C21.0002 11.083 21.4435 12.1213 21.4435 13.4163C21.4435 17.873 18.7135 18.853 16.1118 19.1447C16.5318 19.5063 16.9168 20.218 16.9168 21.303V24.4997C16.9168 24.8147 17.1035 25.188 17.6985 25.083C22.3302 23.5197 25.6668 19.1563 25.6668 13.9997C25.6668 12.4676 25.3651 10.9505 24.7788 9.53503C24.1925 8.11957 23.3331 6.83345 22.2497 5.7501C21.1664 4.66675 19.8803 3.80738 18.4648 3.22108C17.0493 2.63478 15.5323 2.33301 14.0002 2.33301Z" fill="#C0E7EB"/>
</g>
</svg>
