<svg width="201" height="199" viewBox="0 0 201 199" fill="none" xmlns="http://www.w3.org/2000/svg">
<g opacity="0.5">
<path d="M190.426 45.2754L185.448 63.0217C132.857 68.7921 100.489 104.162 100.489 104.162C100.489 104.162 66.0568 66.5487 10.552 62.5753V45.2754L1.62305 66.9505V173.529C1.62305 173.529 61.4249 163.596 100.489 197.369C139.553 163.596 199.355 173.529 199.355 173.529V66.9505L190.426 45.2754Z" fill="#D3ECEF"/>
<path d="M100.484 198.499C100.217 198.496 99.9594 198.397 99.7588 198.22C61.4758 165.172 2.39945 174.547 1.79674 174.648C1.63645 174.673 1.47252 174.664 1.31638 174.619C1.16024 174.575 1.01564 174.497 0.892678 174.391C0.770166 174.286 0.67181 174.156 0.604374 174.01C0.536939 173.863 0.502026 173.704 0.502037 173.543V66.9642C0.500259 66.8191 0.526797 66.6751 0.580165 66.5401L9.50915 44.865C9.60763 44.6258 9.78614 44.4283 10.0141 44.3061C10.2422 44.184 10.5055 44.1448 10.7592 44.1953C11.0172 44.2452 11.2493 44.3845 11.4146 44.5886C11.58 44.7928 11.668 45.0488 11.6633 45.3114V61.5734C61.7102 65.5356 94.9037 97.0214 100.484 102.602C105.864 97.1665 137.171 67.5 184.573 62.031L189.35 45.0101C189.413 44.7851 189.544 44.5854 189.727 44.4393C189.909 44.2931 190.132 44.2078 190.366 44.1953C190.601 44.1779 190.836 44.2355 191.036 44.3598C191.237 44.4841 191.393 44.6688 191.482 44.8873L200.411 66.5624C200.468 66.6966 200.498 66.8407 200.5 66.9865V173.565C200.5 173.726 200.465 173.886 200.398 174.032C200.33 174.178 200.232 174.309 200.109 174.413C199.986 174.519 199.842 174.597 199.686 174.641C199.53 174.686 199.366 174.696 199.205 174.67C198.603 174.57 139.504 165.216 101.243 198.243C101.031 198.419 100.76 198.511 100.484 198.499ZM21.7865 171.121C42.725 171.121 75.6952 174.983 100.484 195.91C136.334 165.652 189.294 171.087 198.234 172.259V67.1874L190.622 48.7045L186.515 63.3368C186.454 63.5498 186.332 63.7399 186.163 63.883C185.994 64.0261 185.786 64.1157 185.566 64.1404C134.035 69.7992 101.634 104.589 101.31 104.935C101.206 105.05 101.078 105.142 100.936 105.205C100.794 105.268 100.64 105.3 100.484 105.3C100.329 105.3 100.175 105.268 100.033 105.205C99.8905 105.142 99.763 105.05 99.6584 104.935C99.3235 104.566 64.8688 67.6004 10.469 63.7052C10.1867 63.6853 9.92254 63.5591 9.72984 63.3519C9.53714 63.1447 9.43032 62.872 9.43102 62.589V50.9255L2.73428 67.1874V172.259C9.05423 171.474 15.418 171.093 21.7865 171.121Z" fill="#2BA6A8"/>
<path d="M100.483 185.943V87.0544C100.483 87.0544 65.5819 42.2086 10.5459 45.2668V160.451C10.5459 160.451 64.9011 149.814 100.483 185.943Z" fill="white"/>
<path d="M100.489 187.063C100.341 187.062 100.195 187.033 100.059 186.975C99.9232 186.918 99.8 186.834 99.6966 186.728C64.9628 151.459 11.2997 161.437 10.7639 161.549C10.6007 161.58 10.4324 161.575 10.2715 161.533C10.1105 161.491 9.96092 161.414 9.83362 161.307C9.70632 161.2 9.60453 161.066 9.53569 160.915C9.46685 160.763 9.4327 160.599 9.43573 160.432V45.2708C9.43522 44.9861 9.54357 44.7119 9.73861 44.5044C9.93366 44.2969 10.2006 44.1718 10.4849 44.1547C65.4874 41.0631 101.014 85.92 101.371 86.3665C101.524 86.5643 101.607 86.808 101.605 87.0585V185.947C101.605 186.243 101.488 186.527 101.278 186.736C101.069 186.946 100.785 187.063 100.489 187.063ZM28.9009 157.943C47.6406 157.943 76.8942 161.928 99.3729 183.279V87.4491C96.2478 83.632 62.5409 44.0431 11.668 46.3311V159.138C17.375 158.315 23.135 157.916 28.9009 157.943Z" fill="#2BA6A8"/>
<path d="M100.482 185.943V87.0544C100.482 87.0544 135.384 42.2086 190.42 45.2668V160.451C190.42 160.451 136.064 149.814 100.482 185.943Z" fill="white"/>
<path d="M100.487 187.062C100.191 187.062 99.9073 186.944 99.698 186.735C99.4887 186.526 99.3711 186.242 99.3711 185.946V87.0574C99.3694 86.807 99.452 86.5633 99.6055 86.3654C99.9627 85.919 135.467 41.0732 190.491 44.1537C190.776 44.1708 191.043 44.2958 191.238 44.5033C191.433 44.7108 191.541 44.985 191.541 45.2698V160.454C191.541 160.618 191.505 160.78 191.435 160.928C191.366 161.077 191.265 161.208 191.139 161.313C191.011 161.418 190.862 161.494 190.702 161.534C190.542 161.575 190.374 161.579 190.212 161.547C189.677 161.436 136.013 151.502 101.28 186.727C101.176 186.833 101.053 186.917 100.917 186.974C100.781 187.032 100.635 187.061 100.487 187.062ZM101.603 87.4481V183.278C134.049 152.395 180.848 157.842 189.308 159.137V46.3301C138.435 44.0532 104.729 83.6086 101.603 87.4481Z" fill="#2BA6A8"/>
<path d="M88.2115 95.8965C87.9296 95.8955 87.6584 95.7879 87.4526 95.5951C57.3173 67.413 26.769 69.3663 26.4676 69.3886C26.321 69.3996 26.1738 69.3816 26.0341 69.3357C25.8945 69.2897 25.7653 69.2167 25.6539 69.1209C25.4289 68.9273 25.29 68.6522 25.2678 68.3562C25.2456 68.0602 25.3419 67.7675 25.5355 67.5424C25.7291 67.3174 26.0042 67.1785 26.3002 67.1563C26.6127 67.1563 58.0539 65.0692 88.9817 93.9433C89.1971 94.1449 89.324 94.4237 89.3344 94.7186C89.3449 95.0135 89.2381 95.3006 89.0375 95.517C88.9341 95.6347 88.8072 95.7293 88.6649 95.7946C88.5226 95.86 88.3681 95.8947 88.2115 95.8965Z" fill="#E5F2F6"/>
<path d="M88.2115 115.596C87.9296 115.595 87.6584 115.487 87.4526 115.294C57.3173 87.1123 26.769 89.0655 26.4676 89.0878C26.321 89.0988 26.1738 89.0808 26.0341 89.0349C25.8945 88.9889 25.7653 88.916 25.6539 88.8201C25.4289 88.6265 25.29 88.3514 25.2678 88.0554C25.2456 87.7594 25.3419 87.4667 25.5355 87.2417C25.7291 87.0167 26.0042 86.8778 26.3002 86.8556C26.6127 86.8556 58.0651 84.7684 88.9817 113.643C89.1971 113.844 89.324 114.123 89.3344 114.418C89.3449 114.713 89.2381 115 89.0375 115.216C88.9341 115.334 88.8072 115.428 88.6649 115.494C88.5226 115.559 88.3681 115.594 88.2115 115.596Z" fill="#E5F2F6"/>
<path d="M88.2115 135.262C87.9296 135.261 87.6584 135.153 87.4526 134.96C57.3173 106.789 26.769 108.732 26.4676 108.754C26.321 108.765 26.1738 108.747 26.0341 108.701C25.8945 108.655 25.7653 108.582 25.6539 108.486C25.4289 108.293 25.29 108.017 25.2678 107.721C25.2456 107.425 25.3419 107.133 25.5355 106.908C25.7291 106.683 26.0042 106.544 26.3002 106.522C26.6127 106.522 58.0651 104.434 88.9817 133.309C89.1971 133.51 89.324 133.789 89.3344 134.084C89.3449 134.379 89.2381 134.666 89.0375 134.882C88.9341 135 88.8072 135.094 88.6649 135.16C88.5226 135.225 88.3681 135.26 88.2115 135.262Z" fill="#E5F2F6"/>
<path d="M88.2115 154.965C87.9296 154.964 87.6584 154.856 87.4526 154.664C57.3173 126.493 26.769 128.435 26.4676 128.457C26.321 128.468 26.1738 128.45 26.0341 128.404C25.8945 128.358 25.7653 128.285 25.6539 128.189C25.4289 127.996 25.29 127.721 25.2678 127.425C25.2456 127.129 25.3419 126.836 25.5355 126.611C25.7291 126.386 26.0042 126.247 26.3002 126.225C26.6127 126.225 58.0651 124.138 88.9817 153.012C89.1971 153.213 89.324 153.492 89.3344 153.787C89.3449 154.082 89.2381 154.369 89.0375 154.585C88.9341 154.703 88.8072 154.798 88.6649 154.863C88.5226 154.928 88.3681 154.963 88.2115 154.965Z" fill="#E5F2F6"/>
<path d="M112.769 95.8917C112.616 95.8912 112.465 95.8593 112.325 95.7978C112.185 95.7364 112.059 95.6468 111.954 95.5346C111.747 95.3254 111.63 95.0426 111.63 94.7477C111.63 94.4528 111.747 94.17 111.954 93.9608C128.094 78.882 144.244 72.3973 154.947 69.607C166.589 66.5823 174.312 67.1292 174.636 67.1627C174.93 67.1856 175.203 67.324 175.396 67.5478C175.588 67.7717 175.684 68.0626 175.663 68.357C175.64 68.6513 175.501 68.9245 175.278 69.117C175.054 69.3094 174.763 69.4054 174.468 69.3838C174.167 69.3838 143.652 67.4083 113.484 95.5904C113.289 95.7729 113.036 95.8799 112.769 95.8917Z" fill="#E5F2F6"/>
<path d="M112.77 115.594C112.617 115.593 112.466 115.561 112.326 115.5C112.186 115.438 112.059 115.349 111.955 115.236C111.748 115.027 111.631 114.744 111.631 114.45C111.631 114.155 111.748 113.872 111.955 113.663C128.095 98.5839 144.245 92.0993 154.948 89.3201C166.59 86.2843 174.313 86.8423 174.637 86.8646C174.931 86.8875 175.204 87.0259 175.397 87.2498C175.589 87.4736 175.685 87.7645 175.664 88.0589C175.641 88.3532 175.502 88.6265 175.279 88.8189C175.055 89.0113 174.764 89.1073 174.469 89.0857C174.168 89.0857 143.653 87.1102 113.485 115.292C113.29 115.475 113.037 115.582 112.77 115.594Z" fill="#E5F2F6"/>
<path d="M112.77 135.264C112.617 135.263 112.466 135.231 112.326 135.17C112.186 135.108 112.059 135.019 111.955 134.906C111.748 134.697 111.631 134.414 111.631 134.12C111.631 133.825 111.748 133.542 111.955 133.333C128.095 118.254 144.245 111.769 154.948 108.99C166.59 105.954 174.313 106.512 174.637 106.535C174.931 106.557 175.204 106.696 175.397 106.92C175.589 107.144 175.685 107.434 175.664 107.729C175.641 108.023 175.502 108.296 175.279 108.489C175.055 108.681 174.764 108.777 174.469 108.756C174.168 108.756 143.642 106.791 113.485 134.962C113.29 135.145 113.037 135.252 112.77 135.264Z" fill="#E5F2F6"/>
<path d="M112.77 154.967C112.617 154.966 112.466 154.934 112.326 154.873C112.186 154.811 112.059 154.722 111.955 154.61C111.748 154.4 111.631 154.118 111.631 153.823C111.631 153.528 111.748 153.245 111.955 153.036C128.095 137.957 144.245 131.472 154.948 128.693C166.59 125.657 174.313 126.215 174.637 126.238C174.931 126.261 175.204 126.399 175.397 126.623C175.589 126.847 175.685 127.138 175.664 127.432C175.641 127.726 175.502 128 175.279 128.192C175.055 128.384 174.764 128.48 174.469 128.459C174.168 128.459 143.642 126.494 113.485 154.665C113.29 154.848 113.037 154.955 112.77 154.967Z" fill="#E5F2F6"/>
<path d="M100.487 198.498C100.191 198.498 99.9073 198.38 99.698 198.171C99.4887 197.962 99.3711 197.678 99.3711 197.382V185.964C99.3711 185.668 99.4887 185.384 99.698 185.175C99.9073 184.965 100.191 184.848 100.487 184.848C100.783 184.848 101.067 184.965 101.276 185.175C101.486 185.384 101.603 185.668 101.603 185.964V197.382C101.603 197.678 101.486 197.962 101.276 198.171C101.067 198.38 100.783 198.498 100.487 198.498Z" fill="#2BA6A8"/>
<path d="M199.352 174.645C199.17 174.645 198.989 174.601 198.828 174.515C198.666 174.429 198.528 174.305 198.426 174.154L189.497 161.084C189.412 160.963 189.352 160.827 189.32 160.683C189.288 160.538 189.285 160.389 189.312 160.244C189.338 160.098 189.393 159.96 189.473 159.836C189.553 159.712 189.658 159.605 189.779 159.521C189.901 159.438 190.039 159.38 190.183 159.349C190.328 159.319 190.477 159.318 190.622 159.346C190.767 159.375 190.905 159.431 191.028 159.513C191.151 159.595 191.257 159.7 191.339 159.823L200.268 172.904C200.35 173.026 200.407 173.162 200.437 173.306C200.466 173.45 200.467 173.598 200.439 173.742C200.411 173.886 200.355 174.023 200.274 174.146C200.192 174.268 200.088 174.373 199.966 174.455C199.785 174.577 199.571 174.643 199.352 174.645Z" fill="#2BA6A8"/>
<path d="M1.61806 174.645C1.39545 174.646 1.17779 174.579 0.99303 174.455C0.87123 174.373 0.766791 174.268 0.685702 174.146C0.604614 174.023 0.548472 173.886 0.520479 173.742C0.492486 173.598 0.493197 173.45 0.522574 173.306C0.551951 173.162 0.609411 173.026 0.691672 172.904L9.62065 159.823C9.70262 159.7 9.80818 159.595 9.93119 159.513C10.0542 159.431 10.1922 159.375 10.3373 159.346C10.4823 159.318 10.6314 159.319 10.7761 159.349C10.9207 159.38 11.058 159.438 11.1798 159.521C11.3017 159.605 11.4058 159.712 11.4861 159.836C11.5664 159.96 11.6212 160.098 11.6475 160.244C11.6738 160.389 11.6709 160.538 11.6391 160.683C11.6073 160.827 11.5472 160.963 11.4623 161.084L2.53328 174.154C2.43196 174.304 2.29571 174.427 2.13627 174.512C1.97684 174.598 1.79899 174.644 1.61806 174.645Z" fill="#2BA6A8"/>
<path d="M101.185 138.629C108.157 138.629 113.808 134.667 113.808 129.779C113.808 124.89 108.157 120.928 101.185 120.928C94.2132 120.928 88.5615 124.89 88.5615 129.779C88.5615 134.667 94.2132 138.629 101.185 138.629Z" fill="#2BA6A8"/>
<path d="M101.189 139.762C93.6219 139.762 87.4609 135.297 87.4609 129.795C87.4609 124.292 93.6219 119.816 101.189 119.816C108.757 119.816 114.929 124.281 114.929 129.795C114.929 135.308 108.768 139.762 101.189 139.762ZM101.189 122.049C94.8497 122.049 89.6932 125.52 89.6932 129.795C89.6932 134.069 94.8497 137.529 101.189 137.529C107.529 137.529 112.696 134.058 112.696 129.795C112.696 125.531 107.54 122.049 101.189 122.049Z" fill="#2BA6A8"/>
<path d="M138.346 57.5764C138.346 51.529 136.877 45.5722 134.064 40.2188C131.251 34.8654 127.179 30.276 122.199 26.8456C117.219 23.4152 111.479 21.2468 105.475 20.527C99.4704 19.8072 93.3811 20.5576 87.7311 22.7136C82.0812 24.8696 77.0399 28.3666 73.0415 32.9034C69.043 37.4403 66.2072 42.881 64.7783 48.7571C63.3493 54.6332 63.3701 60.7686 64.8387 66.6349C66.3073 72.5013 69.1797 77.9227 73.2087 82.4324C79.3478 89.1615 83.1422 97.698 84.0239 106.764H118.021C118.718 97.9202 122.338 89.56 128.312 83.0017C134.769 76.1118 138.358 67.0194 138.346 57.5764Z" fill="white"/>
<path d="M118.028 107.919H84.031C83.7516 107.92 83.482 107.816 83.2753 107.628C83.0686 107.44 82.94 107.182 82.9149 106.903C82.0759 98.0619 78.3769 89.7352 72.3787 83.1857C67.4136 77.6301 64.1707 70.7508 63.0448 63.3853C61.9189 56.0199 62.9585 48.4859 66.0372 41.7007C69.1158 34.9154 74.1006 29.1715 80.3848 25.1682C86.669 21.1649 93.9815 19.0748 101.432 19.1525C108.883 19.2301 116.15 21.4721 122.349 25.6055C128.549 29.7389 133.413 35.5855 136.349 42.4334C139.286 49.2813 140.168 56.8353 138.889 64.1757C137.61 71.5161 134.224 78.3263 129.145 83.7773C123.328 90.1474 119.794 98.2712 119.1 106.87C119.083 107.147 118.964 107.407 118.766 107.601C118.568 107.795 118.305 107.908 118.028 107.919ZM85.0355 105.687H117.024C117.923 96.9547 121.596 88.7404 127.504 82.2482C132.29 77.1142 135.48 70.6997 136.685 63.7854C137.891 56.8712 137.061 49.7555 134.295 43.3048C131.529 36.8541 126.948 31.3465 121.109 27.4527C115.269 23.5589 108.424 21.4468 101.405 21.3735C94.3872 21.3003 87.4991 23.269 81.5796 27.0401C75.6602 30.8112 70.9648 36.2219 68.0652 42.6135C65.1655 49.005 64.1867 56.1018 65.2478 63.0397C66.3089 69.9776 69.3642 76.4574 74.0417 81.6901C80.1223 88.3447 83.9668 96.7361 85.0355 105.687Z" fill="#2BA6A8"/>
<path d="M97.4944 107.904C97.1984 107.904 96.9145 107.786 96.7052 107.577C96.4959 107.367 96.3783 107.084 96.3783 106.788C96.3783 106.553 96.3783 89.3314 94.146 77.4224C90.3689 76.6749 86.7768 75.188 83.5764 73.0472C80.228 70.7368 78.3752 68.0358 78.4422 65.6584C78.5315 62.9351 79.8485 60.9372 81.9914 60.3122C85.3398 59.3412 89.6034 61.8524 92.9183 66.7076C94.4703 69.4301 95.5212 72.409 96.0211 75.5026C99.4294 76.0352 102.902 76.005 106.301 75.4133C108.589 66.6183 111.825 59.9327 115.006 59.2965C116.68 59.0396 118.39 59.3933 119.824 60.2928C121.259 61.1924 122.322 62.5779 122.819 64.1963C123.299 65.8258 124.103 71.4176 114.046 75.5026C112.159 76.2714 110.21 76.88 108.22 77.3219C106.122 85.9272 104.783 96.6308 105.597 105.649C105.624 105.945 105.532 106.24 105.342 106.468C105.151 106.696 104.878 106.839 104.582 106.866C104.286 106.892 103.991 106.8 103.763 106.61C103.535 106.419 103.392 106.146 103.365 105.85C102.759 96.4185 103.568 86.9493 105.765 77.7572C102.698 78.1991 99.5844 78.2178 96.5122 77.813C98.6105 89.8225 98.644 105.85 98.644 106.832C98.6324 107.126 98.505 107.404 98.2897 107.605C98.0744 107.805 97.7886 107.913 97.4944 107.904ZM83.4871 62.3324C83.1962 62.3316 82.9067 62.373 82.6276 62.4552C81.0093 62.9239 80.7191 64.6874 80.6856 65.7254C80.6856 67.288 82.237 69.3974 84.8599 71.2167C87.5366 73.0179 90.5216 74.3118 93.6661 75.0339C93.2274 72.5459 92.3547 70.1545 91.0879 67.9688C88.3757 63.9842 85.4738 62.3324 83.4871 62.3324ZM116.156 61.4172C115.924 61.4168 115.692 61.4392 115.464 61.4841C113.455 61.8859 110.866 67.3326 108.767 74.8776C110.252 74.4939 111.71 74.0129 113.131 73.4378C118.712 71.2056 121.525 67.9465 120.598 64.8437C120.289 63.8829 119.694 63.0396 118.892 62.4271C118.09 61.8146 117.119 61.4622 116.111 61.4172H116.156Z" fill="#C4E6BB"/>
<path d="M117.772 105.754H84.6006C83.078 105.754 81.8438 106.988 81.8438 108.511V128.913C81.8438 130.436 83.078 131.67 84.6006 131.67H117.772C119.294 131.67 120.529 130.436 120.529 128.913V108.511C120.529 106.988 119.294 105.754 117.772 105.754Z" fill="#C4E6BB"/>
<path d="M117.78 132.791H84.5976C83.5713 132.788 82.5879 132.379 81.8622 131.654C81.1365 130.928 80.7276 129.945 80.7246 128.918V108.516C80.7276 107.489 81.1365 106.506 81.8622 105.78C82.5879 105.055 83.5713 104.646 84.5976 104.643H117.78C118.806 104.646 119.79 105.055 120.515 105.78C121.241 106.506 121.65 107.489 121.653 108.516V128.918C121.65 129.945 121.241 130.928 120.515 131.654C119.79 132.379 118.806 132.788 117.78 132.791ZM84.5976 106.875C84.1624 106.875 83.7451 107.048 83.4374 107.355C83.1297 107.663 82.9569 108.08 82.9569 108.516V128.918C82.9569 129.353 83.1297 129.771 83.4374 130.078C83.7451 130.386 84.1624 130.559 84.5976 130.559H117.78C118.215 130.559 118.632 130.386 118.94 130.078C119.248 129.771 119.421 129.353 119.421 128.918V108.516C119.421 108.08 119.248 107.663 118.94 107.355C118.632 107.048 118.215 106.875 117.78 106.875H84.5976Z" fill="#2BA6A8"/>
<path d="M119.996 115.176H82.3935C82.0975 115.176 81.8136 115.058 81.6042 114.849C81.3949 114.639 81.2773 114.355 81.2773 114.059C81.2773 113.763 81.3949 113.48 81.6042 113.27C81.8136 113.061 82.0975 112.943 82.3935 112.943H119.996C120.292 112.943 120.576 113.061 120.785 113.27C120.994 113.48 121.112 113.763 121.112 114.059C121.112 114.355 120.994 114.639 120.785 114.849C120.576 115.058 120.292 115.176 119.996 115.176Z" fill="#2BA6A8"/>
<path d="M119.996 124.508H82.3935C82.0975 124.508 81.8136 124.39 81.6042 124.181C81.3949 123.971 81.2773 123.688 81.2773 123.392C81.2773 123.095 81.3949 122.812 81.6042 122.602C81.8136 122.393 82.0975 122.275 82.3935 122.275H119.996C120.292 122.275 120.576 122.393 120.785 122.602C120.994 122.812 121.112 123.095 121.112 123.392C121.112 123.688 120.994 123.971 120.785 124.181C120.576 124.39 120.292 124.508 119.996 124.508Z" fill="#2BA6A8"/>
<path d="M58.5595 43.4534C58.4217 43.4546 58.285 43.428 58.1577 43.3753L44.0387 37.8728C43.7619 37.7662 43.5388 37.5541 43.4185 37.283C43.2981 37.0119 43.2904 36.7042 43.3969 36.4274C43.5035 36.1506 43.7157 35.9275 43.9867 35.8072C44.2578 35.6868 44.5655 35.6791 44.8423 35.7856L58.9613 41.2211C59.2022 41.3163 59.4025 41.4924 59.5279 41.7191C59.6533 41.9459 59.6958 42.2091 59.6483 42.4638C59.6008 42.7185 59.4662 42.9487 59.2675 43.115C59.0689 43.2813 58.8186 43.3733 58.5595 43.3753V43.4534Z" fill="#E5F2F6"/>
<path d="M74.2423 19.2355C74.0811 19.2355 73.9218 19.2006 73.7754 19.1332C73.629 19.0657 73.4989 18.9674 73.3941 18.8449L64.2195 8.07428C64.1055 7.96829 64.0149 7.83962 63.9536 7.69653C63.8922 7.55344 63.8615 7.3991 63.8634 7.24343C63.8652 7.08775 63.8996 6.93419 63.9644 6.79261C64.0291 6.65102 64.1227 6.52454 64.2393 6.42131C64.3558 6.31807 64.4927 6.24035 64.641 6.19315C64.7894 6.14595 64.9459 6.13032 65.1007 6.14724C65.2555 6.16416 65.405 6.21327 65.5396 6.29142C65.6743 6.36957 65.7911 6.47502 65.8826 6.601L75.0571 17.3827C75.1924 17.5451 75.2787 17.7425 75.3062 17.9521C75.3336 18.1616 75.3011 18.3746 75.2122 18.5664C75.1233 18.7581 74.9819 18.9207 74.8043 19.0352C74.6266 19.1497 74.4202 19.2114 74.2089 19.2132L74.2423 19.2355Z" fill="#E5F2F6"/>
<path d="M142.408 43.4534C142.112 43.5067 141.807 43.4402 141.56 43.2685C141.313 43.0969 141.144 42.8342 141.091 42.5382C141.038 42.2421 141.104 41.9371 141.276 41.6901C141.448 41.4431 141.71 41.2744 142.006 41.2211L156.125 35.7856C156.262 35.7336 156.408 35.709 156.555 35.7134C156.701 35.7177 156.846 35.7509 156.979 35.811C157.113 35.8712 157.234 35.957 157.334 36.0637C157.435 36.1704 157.513 36.2959 157.565 36.433C157.671 36.7083 157.663 37.0143 157.544 37.2841C157.425 37.5539 157.204 37.7655 156.929 37.8728L142.81 43.3418C142.685 43.4061 142.548 43.444 142.408 43.4534Z" fill="#E5F2F6"/>
<path d="M126.726 19.2361C126.515 19.2344 126.308 19.1727 126.131 19.0582C125.953 18.9437 125.811 18.7811 125.723 18.5893C125.634 18.3976 125.601 18.1846 125.629 17.975C125.656 17.7655 125.742 17.5681 125.878 17.4057L135.086 6.60164C135.278 6.37667 135.552 6.23735 135.847 6.21432C136.142 6.1913 136.434 6.28646 136.659 6.47887C136.884 6.67128 137.024 6.94518 137.047 7.24031C137.07 7.53544 136.975 7.82763 136.782 8.0526L127.574 18.879C127.466 18.9954 127.335 19.0875 127.189 19.1491C127.042 19.2107 126.885 19.2403 126.726 19.2361Z" fill="#E5F2F6"/>
<path d="M100.487 14.0073C100.191 14.0073 99.9073 13.8897 99.698 13.6804C99.4887 13.4711 99.3711 13.1872 99.3711 12.8912V1.11612C99.3711 0.820109 99.4887 0.536218 99.698 0.326904C99.9073 0.11759 100.191 0 100.487 0C100.783 0 101.067 0.11759 101.276 0.326904C101.486 0.536218 101.603 0.820109 101.603 1.11612V12.8912C101.603 13.1872 101.486 13.4711 101.276 13.6804C101.067 13.8897 100.783 14.0073 100.487 14.0073Z" fill="#E5F2F6"/>
</g>
</svg>
